<mxfile host="app.diagrams.net" modified="2021-09-06T10:55:37.756Z" agent="5.0 (Windows NT 10.0; Win64; x64) AppleWebKit/537.36 (KHTML, like Gecko) Chrome/93.0.4577.63 Safari/537.36" etag="PoyRLn6avtyADi7VXnAb" version="15.0.6" type="github">
  <diagram id="gDCGYpW3E4Ne-9U0l0Yt" name="Page-1">
    <mxGraphModel dx="1038" dy="489" grid="1" gridSize="10" guides="1" tooltips="1" connect="1" arrows="1" fold="1" page="1" pageScale="1" pageWidth="850" pageHeight="1100" math="0" shadow="0">
      <root>
        <mxCell id="0" />
        <mxCell id="1" parent="0" />
        <mxCell id="4dQCmojssL_X8iTROy7i-14" value="" style="edgeStyle=orthogonalEdgeStyle;rounded=0;orthogonalLoop=1;jettySize=auto;html=1;" edge="1" parent="1" source="4dQCmojssL_X8iTROy7i-1" target="4dQCmojssL_X8iTROy7i-3">
          <mxGeometry relative="1" as="geometry" />
        </mxCell>
        <mxCell id="4dQCmojssL_X8iTROy7i-1" value="Client" style="rounded=1;whiteSpace=wrap;html=1;" vertex="1" parent="1">
          <mxGeometry x="10" y="120" width="90" height="60" as="geometry" />
        </mxCell>
        <mxCell id="4dQCmojssL_X8iTROy7i-2" value="" style="rhombus;whiteSpace=wrap;html=1;" vertex="1" parent="1">
          <mxGeometry x="180" y="120" width="80" height="80" as="geometry" />
        </mxCell>
        <mxCell id="4dQCmojssL_X8iTROy7i-19" value="" style="edgeStyle=orthogonalEdgeStyle;rounded=0;orthogonalLoop=1;jettySize=auto;html=1;" edge="1" parent="1" source="4dQCmojssL_X8iTROy7i-3" target="4dQCmojssL_X8iTROy7i-6">
          <mxGeometry relative="1" as="geometry" />
        </mxCell>
        <mxCell id="4dQCmojssL_X8iTROy7i-3" value="LB" style="rhombus;whiteSpace=wrap;html=1;" vertex="1" parent="1">
          <mxGeometry x="200" y="130" width="80" height="80" as="geometry" />
        </mxCell>
        <mxCell id="4dQCmojssL_X8iTROy7i-4" value="" style="whiteSpace=wrap;html=1;aspect=fixed;" vertex="1" parent="1">
          <mxGeometry x="360" y="120" width="80" height="80" as="geometry" />
        </mxCell>
        <mxCell id="4dQCmojssL_X8iTROy7i-20" value="" style="edgeStyle=orthogonalEdgeStyle;rounded=0;orthogonalLoop=1;jettySize=auto;html=1;" edge="1" parent="1" source="4dQCmojssL_X8iTROy7i-6" target="4dQCmojssL_X8iTROy7i-9">
          <mxGeometry relative="1" as="geometry" />
        </mxCell>
        <mxCell id="4dQCmojssL_X8iTROy7i-28" value="" style="edgeStyle=orthogonalEdgeStyle;rounded=0;orthogonalLoop=1;jettySize=auto;html=1;" edge="1" parent="1" source="4dQCmojssL_X8iTROy7i-6" target="4dQCmojssL_X8iTROy7i-27">
          <mxGeometry relative="1" as="geometry" />
        </mxCell>
        <mxCell id="4dQCmojssL_X8iTROy7i-6" value="App Servers" style="whiteSpace=wrap;html=1;aspect=fixed;" vertex="1" parent="1">
          <mxGeometry x="385" y="130" width="80" height="80" as="geometry" />
        </mxCell>
        <mxCell id="4dQCmojssL_X8iTROy7i-8" value="" style="rhombus;whiteSpace=wrap;html=1;" vertex="1" parent="1">
          <mxGeometry x="550" y="120" width="80" height="80" as="geometry" />
        </mxCell>
        <mxCell id="4dQCmojssL_X8iTROy7i-24" value="" style="edgeStyle=orthogonalEdgeStyle;rounded=0;orthogonalLoop=1;jettySize=auto;html=1;" edge="1" parent="1" source="4dQCmojssL_X8iTROy7i-9" target="4dQCmojssL_X8iTROy7i-23">
          <mxGeometry relative="1" as="geometry" />
        </mxCell>
        <mxCell id="4dQCmojssL_X8iTROy7i-9" value="LB" style="rhombus;whiteSpace=wrap;html=1;" vertex="1" parent="1">
          <mxGeometry x="560" y="130" width="80" height="80" as="geometry" />
        </mxCell>
        <mxCell id="4dQCmojssL_X8iTROy7i-32" value="" style="edgeStyle=orthogonalEdgeStyle;rounded=0;orthogonalLoop=1;jettySize=auto;html=1;" edge="1" parent="1" source="4dQCmojssL_X8iTROy7i-12">
          <mxGeometry relative="1" as="geometry">
            <mxPoint x="770" y="460" as="targetPoint" />
          </mxGeometry>
        </mxCell>
        <mxCell id="4dQCmojssL_X8iTROy7i-12" value="DB servers" style="shape=cylinder3;whiteSpace=wrap;html=1;boundedLbl=1;backgroundOutline=1;size=15;" vertex="1" parent="1">
          <mxGeometry x="740" y="290" width="60" height="80" as="geometry" />
        </mxCell>
        <mxCell id="4dQCmojssL_X8iTROy7i-23" value="" style="whiteSpace=wrap;html=1;" vertex="1" parent="1">
          <mxGeometry x="700" y="140" width="120" height="60" as="geometry" />
        </mxCell>
        <mxCell id="4dQCmojssL_X8iTROy7i-26" value="" style="edgeStyle=orthogonalEdgeStyle;rounded=0;orthogonalLoop=1;jettySize=auto;html=1;" edge="1" parent="1" source="4dQCmojssL_X8iTROy7i-25" target="4dQCmojssL_X8iTROy7i-12">
          <mxGeometry relative="1" as="geometry" />
        </mxCell>
        <mxCell id="4dQCmojssL_X8iTROy7i-25" value="Cache Servers" style="whiteSpace=wrap;html=1;" vertex="1" parent="1">
          <mxGeometry x="710" y="150" width="120" height="60" as="geometry" />
        </mxCell>
        <mxCell id="4dQCmojssL_X8iTROy7i-30" value="" style="edgeStyle=orthogonalEdgeStyle;rounded=0;orthogonalLoop=1;jettySize=auto;html=1;" edge="1" parent="1" source="4dQCmojssL_X8iTROy7i-27" target="4dQCmojssL_X8iTROy7i-29">
          <mxGeometry relative="1" as="geometry" />
        </mxCell>
        <mxCell id="4dQCmojssL_X8iTROy7i-27" value="key Generator Service" style="whiteSpace=wrap;html=1;" vertex="1" parent="1">
          <mxGeometry x="365" y="300" width="120" height="60" as="geometry" />
        </mxCell>
        <mxCell id="4dQCmojssL_X8iTROy7i-34" value="" style="edgeStyle=orthogonalEdgeStyle;rounded=0;orthogonalLoop=1;jettySize=auto;html=1;" edge="1" parent="1" source="4dQCmojssL_X8iTROy7i-29" target="4dQCmojssL_X8iTROy7i-33">
          <mxGeometry relative="1" as="geometry" />
        </mxCell>
        <mxCell id="4dQCmojssL_X8iTROy7i-36" value="" style="edgeStyle=orthogonalEdgeStyle;rounded=0;orthogonalLoop=1;jettySize=auto;html=1;" edge="1" parent="1" source="4dQCmojssL_X8iTROy7i-29" target="4dQCmojssL_X8iTROy7i-35">
          <mxGeometry relative="1" as="geometry" />
        </mxCell>
        <mxCell id="4dQCmojssL_X8iTROy7i-29" value="Key DB" style="shape=cylinder3;whiteSpace=wrap;html=1;boundedLbl=1;backgroundOutline=1;size=15;" vertex="1" parent="1">
          <mxGeometry x="395" y="440" width="60" height="80" as="geometry" />
        </mxCell>
        <mxCell id="4dQCmojssL_X8iTROy7i-33" value="Clean up service" style="whiteSpace=wrap;html=1;" vertex="1" parent="1">
          <mxGeometry x="710" y="460" width="120" height="60" as="geometry" />
        </mxCell>
        <mxCell id="4dQCmojssL_X8iTROy7i-35" value="Key DB backup" style="shape=cylinder3;whiteSpace=wrap;html=1;boundedLbl=1;backgroundOutline=1;size=15;" vertex="1" parent="1">
          <mxGeometry x="255" y="440" width="60" height="80" as="geometry" />
        </mxCell>
      </root>
    </mxGraphModel>
  </diagram>
</mxfile>
